<?xml version="1.0" encoding="UTF-8"?>
<!-- Generator: visioncortex VTracer 0.6.3 -->
<svg version="1.1" xmlns="http://www.w3.org/2000/svg" width="1280" height="1280">
<path d="M0 0 C0 0.66 0 1.32 0 2 C0.85 2.34 0.85 2.34 1.72 2.68 C8.44 6.57 13.12 14.71 16.62 21.48 C18.45 24.82 20.49 27.99 22.56 31.19 C22.94 31.77 23.32 32.35 23.7 32.95 C25.52 35.75 27.36 38.53 29.24 41.28 C31 44 31 44 31.56 46.31 C31.71 46.87 31.85 47.43 32 48 C32.99 48.33 33.98 48.66 35 49 C37.19 50.94 37.19 50.94 39 53 C39 53.66 39 54.32 39 55 C46 56.05 50.73 56.46 57 53 C57.7 52.71 58.4 52.42 59.12 52.12 C61.26 50.95 61.26 50.95 63.56 48.44 C66 46 66 46 69 45 C69.33 44.01 69.66 43.02 70 42 C71.57 40.46 71.57 40.46 73.56 38.81 C77.39 35.58 80.88 32.13 84.34 28.5 C86 27 86 27 88 27 C88 26.34 88 25.68 88 25 C89.86 23.43 91.72 21.99 93.69 20.56 C94.74 19.78 95.8 19 96.89 18.19 C103.79 13.33 108.46 11.62 117 13 C126.06 17.54 128.98 28.09 132 37 C132.28 37.81 132.56 38.62 132.85 39.46 C134.62 44.69 136.17 49.97 137.63 55.29 C141.04 68.69 141.04 68.69 147.9 80.54 C149 82 149 82 149 84 C154.01 86.43 158.22 86.81 163.61 85.24 C169.3 83.24 174.69 80.86 180 78 C180.94 77.5 181.88 76.99 182.86 76.47 C187.5 73.98 192.14 71.48 196.75 68.91 C217.38 57.49 217.38 57.49 227 59 C232.33 61.02 235.35 63.9 238 69 C241.7 77.79 241.52 86.89 241.62 96.25 C241.67 99.28 241.73 102.3 241.79 105.33 C241.8 106.06 241.82 106.8 241.83 107.55 C241.39 125.42 241.39 125.42 248.62 140.75 C252.15 143.51 255.58 143.65 259.94 143.44 C260.61 143.43 261.29 143.43 261.99 143.42 C266.61 143.31 270.61 142.38 275 141 C276.54 140.66 278.08 140.35 279.62 140.06 C285.79 138.87 291.89 137.44 298 136 C298 135.67 298 135.34 298 135 C303.61 133.87 309.17 133.64 314.88 133.5 C315.83 133.45 316.79 133.39 317.77 133.34 C323.23 133.23 326.4 133.76 330.63 137.36 C332.92 139.58 333.92 140.77 335 143.81 C335 144.86 335 145.92 335 147 C335.05 148.04 335.05 148.04 335.11 149.11 C335.55 162.09 332.26 174.56 329 187 C328.24 189.99 327.57 192.97 327 196 C326.67 197.76 326.67 197.76 326.33 199.56 C324.52 210.15 324.52 210.15 328 220 C330.32 222.03 330.32 222.03 333 223 C333.94 223.51 333.94 223.51 334.9 224.03 C343.92 228.2 357.12 226.29 366.96 226.4 C396.53 226.76 396.53 226.76 405.62 234.4 C409.25 238.6 409.49 242.49 409.37 247.88 C408.2 257.74 402.86 266.42 397.87 274.81 C396.11 277.82 394.54 280.87 393 284 C392.16 285.53 391.3 287.05 390.44 288.56 C388.71 291.65 387.18 294.65 386 298 C385.65 298.91 385.3 299.82 384.94 300.75 C383.16 306.93 382.54 312.68 384 319 C384.99 319.33 385.98 319.66 387 320 C387 320.66 387 321.32 387 322 C387.8 322.25 388.61 322.5 389.44 322.75 C392.15 323.7 394.6 324.72 397.19 325.94 C400.45 327.41 403.63 328.52 407.09 329.43 C447.09 340.07 447.09 340.07 455 351 C456.45 357.01 455.78 361.13 454 367 C453.34 367 452.68 367 452 367 C451.34 368.98 450.68 370.96 450 373 C449.34 373 448.68 373 448 373 C447.92 373.58 447.84 374.15 447.75 374.75 C446.78 377.65 445.31 379.04 443 381 C442.34 381 441.68 381 441 381 C440.73 381.59 440.46 382.18 440.18 382.78 C437.54 387.75 433.18 392.27 429 396 C428.34 396 427.68 396 427 396 C426.67 396.99 426.34 397.98 426 399 C425.34 399 424.68 399 424 399 C423.6 399.87 423.6 399.87 423.18 400.75 C421.99 403.02 420.64 404.91 419.06 406.94 C418.54 407.64 418.01 408.35 417.46 409.07 C416.38 410.5 415.26 411.91 414.12 413.31 C412.26 417.77 412.34 422.25 413 427 C415.05 430.46 416.67 431.78 420 434 C420 434.66 420 435.32 420 436 C420.54 436.08 421.07 436.16 421.62 436.25 C424.87 437.28 427.29 438.97 430 441 C430 441.66 430 442.32 430 443 C430.81 443.15 430.81 443.15 431.64 443.3 C446.47 447.7 463.48 461.22 472 474 C472.81 477.93 472.76 481.52 470.9 485.12 C469.36 487.23 467.79 489.1 466 491 C465.53 491.52 465.07 492.04 464.59 492.57 C459.87 497.6 454.63 500.99 448.69 504.44 C447.78 504.98 446.88 505.52 445.94 506.08 C439.29 510 439.29 510 437 510 C437 510.66 437 511.32 437 512 C433.39 513.85 429.79 515.55 426 517 C426 517.66 426 518.32 426 519 C424.01 520.34 422.01 521.68 420 523 C418.3 524.63 416.62 526.29 415 528 C414.34 528.66 413.68 529.32 413 530 C411.7 536.54 412.78 541.4 416.31 547 C418 549.43 419.61 551.62 421.73 553.69 C423 555 423 555 423 557 C423.99 557.33 424.98 557.66 426 558 C427.25 559.45 428.5 560.9 429.69 562.4 C432.13 565.38 434.94 568 437.74 570.63 C446.03 578.59 455.77 587.99 456.05 600.05 C455.76 605.45 453.78 608.3 450 612 C445.63 615.21 441.36 617.25 436.31 619.06 C435.6 619.32 434.89 619.58 434.16 619.85 C429.55 621.51 424.93 622.94 420.18 624.16 C415.73 625.34 411.3 626.59 406.88 627.88 C406.04 628.11 405.2 628.34 404.34 628.58 C397.3 630.64 388.31 633.71 384 640 C380.75 652.35 388.08 665.17 394 675.69 C395.12 677.55 396.25 679.41 397.4 681.25 C404.16 692.25 410.45 703.72 409 717 C407.04 721.74 403.8 724.63 399.2 726.88 C389.77 730.55 378.82 730.01 368.81 730.21 C368.12 730.23 367.44 730.24 366.73 730.25 C363.93 730.31 361.13 730.37 358.33 730.4 C348.5 730.53 339.58 731.56 330 734 C330 734.66 330 735.32 330 736 C329.53 736.45 329.07 736.91 328.59 737.38 C325.42 740.62 325.19 744.61 325 749 C325.65 757.12 326.78 765.48 330 773 C333.84 786.97 338.11 803.88 333 818 C329.53 821.77 325.97 822.99 321 824 C315.11 824.21 309.66 823.64 303.88 822.62 C303.1 822.5 302.33 822.37 301.54 822.24 C297.19 821.5 293.17 820.48 289 819 C286.02 818.24 283.01 817.63 280 817 C279.23 816.82 278.45 816.65 277.66 816.46 C267.78 814.3 257.37 812.13 248 817 C240.12 824.88 241.99 841.19 241.79 851.64 C241.77 852.38 241.76 853.11 241.75 853.88 C241.69 856.91 241.63 859.95 241.6 862.99 C241.31 886.35 241.31 886.35 233.4 894.76 C229.55 898.17 224.62 897.32 219.74 897.28 C211.67 896.67 204.92 893.19 198.02 889.17 C195.41 887.65 192.71 886.32 190 885 C190 884.34 190 883.68 190 883 C189.35 882.93 188.7 882.86 188.03 882.78 C183.02 881.49 178.74 878.75 174.24 876.24 C168.65 873.18 164.29 871.86 157.88 871.88 C156.6 871.87 156.6 871.87 155.3 871.87 C152.84 871.91 152.84 871.91 150 873 C149.34 873.99 148.68 874.98 148 876 C147.34 876 146.68 876 146 876 C145.85 877.02 145.85 877.02 145.69 878.06 C145.02 880.9 143.99 883.34 142.83 886 C141.37 889.52 140.19 893.13 139 896.75 C138.74 897.54 138.47 898.33 138.2 899.15 C136.52 904.27 135.01 909.42 133.63 914.63 C131.05 924.28 127.48 937.08 119 943 C113.29 945.39 108.8 945.25 103.09 943 C100.1 941.57 97.6 940.06 95 938 C95 937.34 95 936.68 95 936 C94.42 935.92 93.85 935.84 93.25 935.75 C90.35 934.78 88.96 933.31 87 931 C87 930.34 87 929.68 87 929 C85.68 928.34 84.36 927.68 83 927 C83 926.34 83 925.68 83 925 C82.46 924.77 81.93 924.55 81.38 924.31 C77.08 921.94 73.8 919.03 70.81 915.19 C65.8 908.9 56.83 902.19 48.88 900.57 C43.76 900.56 40.97 901.53 37 905 C32.37 910.11 28.54 915.43 25.34 921.52 C20.54 930.4 14.95 938.86 9 947 C8.41 947.82 7.82 948.63 7.22 949.48 C3.06 955.08 -0.48 959.12 -7.5 960.88 C-13.61 961.09 -17.48 959.05 -21.94 955 C-27.45 949.85 -33.58 943.68 -35 936 C-35.66 936 -36.32 936 -37 936 C-37.53 934.86 -37.53 934.86 -38.06 933.69 C-40.63 928.55 -43.87 923.8 -47 919 C-47.54 918.16 -48.09 917.33 -48.65 916.46 C-54.48 907.39 -54.48 907.39 -63 901 C-69.94 899.98 -74.38 901.96 -80 906 C-82.72 908.33 -85.35 910.73 -87.93 913.21 C-90 915 -90 915 -92 915 C-92.33 915.99 -92.66 916.98 -93 918 C-94.44 919.24 -95.89 920.48 -97.38 921.66 C-99.25 923.16 -99.25 923.16 -101.69 925.75 C-104 928 -104 928 -107 929 C-107.33 929.99 -107.66 930.98 -108 932 C-110.11 933.94 -110.11 933.94 -112.75 936 C-113.61 936.68 -114.47 937.36 -115.36 938.06 C-121 942.2 -125.96 944.57 -133 945 C-135.88 944.41 -137.44 943.58 -140 942 C-140.33 941.01 -140.66 940.02 -141 939 C-141.99 938.67 -142.98 938.34 -144 938 C-145.44 935.44 -145.44 935.44 -147 932 C-147.31 931.43 -147.62 930.87 -147.94 930.28 C-152.19 922.44 -154.37 913.78 -156.45 905.15 C-158.43 897.47 -160.81 890.06 -164.18 882.88 C-165.16 880.63 -165.69 878.43 -166 876 C-166.99 875.67 -167.98 875.34 -169 875 C-169.33 874.34 -169.66 873.68 -170 873 C-172.88 872.04 -174.81 871.84 -177.81 871.81 C-179.06 871.79 -179.06 871.79 -180.33 871.77 C-186.3 872.29 -191.43 875.07 -196.69 877.75 C-197.74 878.28 -197.74 878.28 -198.82 878.83 C-205.39 882.17 -211.92 885.61 -218.29 889.34 C-228.28 895.14 -238.22 898.98 -250 897 C-253.61 894.71 -255.58 892.63 -257.19 888.69 C-257.49 887.97 -257.79 887.25 -258.11 886.51 C-260.14 880.81 -261.26 875.72 -261.38 869.66 C-261.4 868.98 -261.41 868.29 -261.43 867.59 C-261.48 865.41 -261.52 863.24 -261.56 861.06 C-261.74 852.47 -261.94 843.88 -262.42 835.3 C-262.49 834.03 -262.56 832.77 -262.63 831.47 C-263.27 825.48 -264.73 820.14 -269.19 815.94 C-276.06 813.65 -282.16 813.96 -289.25 814.81 C-289.94 814.89 -290.62 814.98 -291.33 815.06 C-295.18 815.58 -298.43 816.5 -302 818 C-303.8 818.38 -305.62 818.71 -307.44 819 C-310.4 819.47 -313.08 820.03 -315.92 820.99 C-326.61 824.49 -339.62 826.11 -350 821 C-354.28 817.04 -354.8 813.53 -355.12 807.89 C-355.39 798.13 -353.97 788.29 -351 779 C-350.32 776.34 -349.65 773.67 -349 771 C-348.82 770.28 -348.65 769.56 -348.46 768.83 C-344 753.48 -344 753.48 -347.12 738.5 C-349.65 734.98 -351.68 733.85 -356 733 C-357.05 732.67 -358.11 732.34 -359.2 732 C-365.99 730.29 -373.1 730.56 -380.06 730.44 C-418.47 729.64 -418.47 729.64 -426.12 722.44 C-429.94 717.48 -429.65 711.99 -429 706 C-426.59 697.42 -422.43 689.68 -418 682 C-416.8 679.86 -415.61 677.72 -414.43 675.58 C-413.63 674.15 -412.84 672.72 -412.04 671.29 C-404.23 657.49 -404.23 657.49 -403.44 641.95 C-404.24 639.18 -405.8 637.78 -408 636 C-408 635.34 -408 634.68 -408 634 C-408.85 633.9 -409.69 633.79 -410.56 633.69 C-414.37 632.93 -417.46 631.59 -421 630 C-427.06 627.6 -433.16 625.74 -439.44 624 C-457.91 618.86 -457.91 618.86 -464.94 615.06 C-465.85 614.58 -466.77 614.1 -467.71 613.6 C-470.14 611.9 -470.97 610.73 -472 608 C-472.66 608 -473.32 608 -474 608 C-475.62 601.79 -476.76 597.05 -474 591 C-469.33 583.54 -463.55 577.12 -457.55 570.73 C-455.49 568.53 -453.51 566.3 -451.56 564 C-449.46 561.54 -447.42 559.16 -445 557 C-444.34 557 -443.68 557 -443 557 C-442.62 556.17 -442.62 556.17 -442.22 555.32 C-440.82 552.67 -439.18 550.31 -437.44 547.88 C-434.3 543.48 -432.83 541.12 -432.69 535.69 C-432.65 534.74 -432.61 533.8 -432.57 532.82 C-433.55 526.38 -439.53 522.69 -444.37 518.91 C-447.31 516.77 -450.31 515.03 -453.52 513.34 C-485.38 496.15 -485.38 496.15 -492 483 C-492.73 476.55 -491.57 473.36 -488 468 C-487.34 468 -486.68 468 -486 468 C-485.75 467.41 -485.5 466.82 -485.25 466.21 C-481.45 459.48 -472.51 455.33 -466.09 451.48 C-465.4 450.99 -464.71 450.5 -464 450 C-464 449.34 -464 448.68 -464 448 C-463.38 447.88 -462.76 447.75 -462.12 447.62 C-459.81 447.13 -459.81 447.13 -458 445 C-457.01 445 -456.02 445 -455 445 C-452.74 443.69 -452.74 443.69 -450.44 442 C-446.21 439 -446.21 439 -444 439 C-444 438.34 -444 437.68 -444 437 C-443.44 436.79 -442.89 436.59 -442.31 436.38 C-440.03 435.02 -439 433.92 -437.38 431.88 C-436.59 430.93 -435.81 429.98 -435 429 C-434.34 429 -433.68 429 -433 429 C-433 423.72 -433 418.44 -433 413 C-433.66 413 -434.32 413 -435 413 C-436.33 411.21 -436.33 411.21 -437.81 408.81 C-440.24 405.05 -442.75 402.1 -446 399 C-447.49 397.36 -448.97 395.72 -450.44 394.06 C-453.07 391.11 -455.72 388.24 -458.56 385.5 C-461 383 -461 383 -461 381 C-461.99 380.67 -462.98 380.34 -464 380 C-465.94 377.67 -465.94 377.67 -468 374.75 C-468.68 373.8 -469.36 372.84 -470.06 371.86 C-474.54 365.25 -476.66 360.34 -475.44 352.31 C-472.43 345.38 -465.21 341.69 -458.43 338.97 C-455.63 337.94 -452.82 336.96 -450 336 C-449.21 335.72 -448.42 335.44 -447.61 335.15 C-443.2 333.62 -438.82 332.43 -434.24 331.53 C-429.02 330.3 -423.98 328.3 -418.94 326.5 C-417.75 326.08 -416.56 325.65 -415.34 325.22 C-412.54 324.2 -409.76 323.13 -407 322 C-407 321.34 -407 320.68 -407 320 C-406.02 318.98 -405.02 317.98 -404 317 C-401.72 312.43 -402.89 306.53 -404.06 301.69 C-406.74 294.02 -411.3 286.97 -415.32 279.93 C-430.99 252.41 -430.99 252.41 -429 238 C-426.69 234.81 -426.69 234.81 -424 233 C-423.01 233 -422.02 233 -421 233 C-421 232.34 -421 231.68 -421 231 C-418.94 230.52 -416.88 230.04 -414.81 229.56 C-413.66 229.3 -412.52 229.03 -411.33 228.75 C-410.23 228.51 -409.13 228.26 -408 228 C-407.27 227.83 -406.54 227.65 -405.79 227.47 C-402.19 226.86 -398.63 226.79 -394.99 226.72 C-394.22 226.7 -393.45 226.68 -392.66 226.66 C-390.21 226.6 -387.76 226.55 -385.31 226.5 C-366.05 227.13 -366.05 227.13 -348 222 C-346.38 219.05 -346.38 219.05 -346 216 C-345.67 215.34 -345.34 214.68 -345 214 C-344.43 207.61 -345.46 201.64 -346.88 195.44 C-347.05 194.64 -347.22 193.84 -347.4 193.02 C-348.74 186.93 -350.1 180.82 -352 174.88 C-355.14 163.99 -357.11 150.81 -353 140 C-351.09 136.79 -349.42 135.42 -346 134 C-342.51 133.58 -339.01 133.67 -335.5 133.69 C-334.51 133.69 -333.52 133.69 -332.5 133.7 C-325.28 133.8 -318.85 134.66 -312 137 C-310.34 137.53 -308.67 138.05 -307 138.56 C-306.21 138.81 -305.41 139.05 -304.59 139.31 C-300.6 140.37 -296.55 140.97 -292.47 141.57 C-290 142 -290 142 -288 143 C-285.4 143.2 -282.85 143.32 -280.25 143.38 C-279.19 143.43 -279.19 143.43 -278.12 143.49 C-274.16 143.55 -271.73 143.2 -268.6 140.68 C-262.04 133.91 -262.53 125.6 -262.21 116.73 C-262 113 -262 113 -261 110 C-261.66 109.67 -262.32 109.34 -263 109 C-262.67 108.34 -262.34 107.68 -262 107 C-261.88 105.21 -261.82 103.41 -261.79 101.61 C-261.06 70.85 -261.06 70.85 -256.13 64.65 C-252.29 61.11 -249.19 59.17 -243.88 58.75 C-235.84 59.27 -228.61 62.93 -221.44 66.38 C-220.24 66.94 -220.24 66.94 -219.02 67.51 C-214.42 69.7 -210.07 72.09 -205.8 74.87 C-199.61 78.77 -192.79 81.36 -186 84 C-185.15 84.36 -184.3 84.72 -183.42 85.1 C-180.11 86.33 -177.5 86.31 -174 86 C-170.27 84.25 -170.27 84.25 -168 81 C-167.34 81 -166.68 81 -166 81 C-165.92 80.36 -165.83 79.72 -165.75 79.06 C-165.1 76.43 -164.33 74.43 -163.19 72 C-159.82 64.62 -157.74 56.81 -155.66 48.99 C-147.92 20.23 -147.92 20.23 -139.07 13.87 C-134.37 11.89 -129.94 12 -125 13 C-116.16 16.71 -109.29 24.08 -102.46 30.62 C-100.5 32.47 -98.48 34.24 -96.44 36 C-91.1 40.64 -91.1 40.64 -89 43 C-89 43.66 -89 44.32 -89 45 C-88.45 45.25 -87.89 45.49 -87.32 45.75 C-84.56 47.24 -82.32 49.1 -79.88 51.06 C-73.55 55.73 -68.55 56.64 -60.88 55.56 C-60.26 55.38 -59.64 55.19 -59 55 C-59 54.34 -59 53.68 -59 53 C-56.62 50.38 -56.62 50.38 -54 48 C-53.34 48 -52.68 48 -52 48 C-51.92 47.46 -51.84 46.93 -51.75 46.38 C-50.72 43.13 -49.03 40.71 -47 38 C-46.34 38 -45.68 38 -45 38 C-44.89 37.27 -44.79 36.53 -44.68 35.77 C-43.95 32.81 -42.95 31.09 -41.19 28.62 C-39.36 26.01 -37.72 23.49 -36.19 20.69 C-32.61 14.25 -27.63 6.77 -22 2 C-21.34 2 -20.68 2 -20 2 C-19.67 1.01 -19.34 0.02 -19 -1 C-11.71 -5 -7.27 -3.98 0 0 Z " fill="#252628" transform="translate(659,235)"/>
<path d="M0 0 C0.6 0.54 1.2 1.08 1.82 1.64 C2.5 2.25 3.18 2.85 3.88 3.48 C4.56 4.09 5.24 4.7 5.95 5.32 C6.58 5.87 7.22 6.42 7.88 6.98 C9.93 8.73 11.94 10.52 13.95 12.32 C15.12 13.38 15.12 13.38 16.32 14.46 C25.89 23.51 32.94 34.65 38.95 46.32 C39.24 46.88 39.54 47.43 39.84 48 C49.86 66.67 54.13 84.72 54.76 105.95 C54.79 107.01 54.79 107.01 54.82 108.08 C55.14 119.15 54.7 129.56 51.95 140.32 C51.7 141.37 51.7 141.37 51.45 142.43 C48.87 153.37 44.52 162.8 38.96 172.53 C37.66 174.83 36.43 177.17 35.2 179.51 C33.52 182.5 31.62 185.08 29.34 187.66 C26.88 190.6 24.77 193.8 22.59 196.96 C21.78 198.13 21.78 198.13 20.95 199.32 C20.46 200.04 19.98 200.76 19.48 201.5 C17.75 203.55 16.33 204.16 13.95 205.32 C12.16 206.87 10.41 208.46 8.7 210.07 C-2.34 220.25 -2.34 220.25 -7.46 222.27 C-10.31 223.43 -12.58 224.91 -15.12 226.64 C-40.39 242.85 -76.29 246.26 -105.34 240.7 C-111.72 239.3 -117.91 237.56 -124.05 235.32 C-124.71 235.1 -125.36 234.88 -126.03 234.64 C-136.79 230.83 -145.98 224.91 -155.33 218.5 C-156.95 217.4 -158.59 216.33 -160.23 215.26 C-162.87 213.45 -165.19 211.55 -167.55 209.39 C-170.05 207.12 -172.52 204.96 -175.18 202.89 C-179.06 199.43 -181.97 195.49 -185.05 191.32 C-185.68 190.51 -186.31 189.7 -186.96 188.86 C-196.76 175.93 -203.1 162.91 -207.48 147.32 C-207.99 145.56 -208.56 143.82 -209.15 142.09 C-213.88 127.64 -214.49 110.21 -212.05 95.32 C-212.1 94.34 -212.15 93.35 -212.2 92.33 C-212.23 87.08 -210.68 82.17 -209.3 77.14 C-209.03 76.12 -208.76 75.1 -208.48 74.05 C-203.78 56.78 -203.78 56.78 -202.05 53.32 C-200.57 52.83 -200.57 52.83 -199.05 52.32 C-198.93 51.59 -198.81 50.85 -198.69 50.09 C-197.03 42.86 -192.19 36.95 -187.51 31.37 C-186.02 29.28 -185.61 27.79 -185.05 25.32 C-183.93 24.14 -182.8 22.96 -181.6 21.85 C-179.99 20.32 -179.99 20.32 -178.51 18.43 C-166.9 4.2 -149.42 -5.88 -133.05 -13.68 C-132.43 -13.98 -131.8 -14.29 -131.15 -14.61 C-124.98 -17.52 -118.73 -19.26 -112.12 -20.86 C-111.1 -21.12 -110.08 -21.38 -109.03 -21.65 C-73.04 -30.54 -29.2 -23.82 0 0 Z " fill="#FCFCFC" transform="translate(544.0546875,587.67578125)"/>
<path d="M0 0 C1.23 -0.01 2.47 -0.02 3.74 -0.02 C15.19 0 26.13 1.54 37.19 4.5 C37.99 4.71 38.8 4.93 39.63 5.15 C57.33 10.05 75 18.82 87.75 32.25 C89.2 33.53 90.66 34.8 92.12 36.06 C103.93 46.5 112.39 59.43 119.75 73.25 C120.11 73.89 120.47 74.52 120.85 75.18 C124.01 80.94 125.71 87.22 127.59 93.49 C128.43 96.22 129.32 98.76 130.44 101.38 C136.91 118.62 137.21 148.55 130.7 165.68 C129.68 168.44 128.84 171.25 128.01 174.07 C125.88 181.2 123.39 187.73 119.75 194.25 C119.41 194.92 119.06 195.6 118.71 196.29 C115.95 201.58 112.66 206.5 109.31 211.44 C108.86 212.12 108.4 212.79 107.94 213.49 C104.9 217.9 101.58 221.52 97.75 225.25 C97.38 225.99 97.01 226.74 96.62 227.5 C95.45 229.84 94.09 230.19 91.75 231.25 C91.21 231.79 90.68 232.32 90.12 232.88 C89.67 233.33 89.22 233.78 88.75 234.25 C88.09 234.25 87.43 234.25 86.75 234.25 C86.49 234.85 86.24 235.45 85.97 236.07 C82.38 242.48 73.64 246.27 67.44 249.81 C66.61 250.29 65.77 250.77 64.92 251.26 C50.13 259.66 50.13 259.66 41.75 261.25 C38.14 262.21 34.53 263.21 30.93 264.21 C21.81 266.56 13.1 267.59 3.69 267.5 C2.6 267.49 1.51 267.49 0.39 267.48 C-17.47 267.25 -32.81 264.69 -49.31 257.51 C-51.2 256.7 -53.1 255.94 -55.04 255.24 C-66.58 250.96 -88.5 239.75 -94.25 228.25 C-95.24 227.92 -96.23 227.59 -97.25 227.25 C-98.98 225.17 -98.98 225.17 -100.88 222.44 C-103.8 218.29 -106.79 214.22 -109.88 210.19 C-116.77 200.97 -121.35 192.07 -125.25 181.25 C-125.68 180.18 -126.12 179.11 -126.57 178.01 C-138.49 147.71 -135.71 110.09 -122.94 80.5 C-122.07 78.74 -121.17 76.99 -120.25 75.25 C-119.94 74.66 -119.63 74.07 -119.32 73.46 C-114.17 63.62 -108.33 54.8 -101.25 46.25 C-100.58 45.43 -99.91 44.61 -99.23 43.76 C-94.18 37.8 -88.41 33.03 -82.25 28.25 C-81.32 27.5 -80.4 26.74 -79.44 25.96 C-68.71 17.47 -56.73 11.9 -43.92 7.26 C-41.31 6.34 -41.31 6.34 -39.19 5.16 C-36.91 4.09 -34.99 3.85 -32.5 3.62 C-31.7 3.55 -30.9 3.48 -30.08 3.4 C-29.47 3.35 -28.87 3.3 -28.25 3.25 C-28.25 2.59 -28.25 1.93 -28.25 1.25 C-27.61 1.46 -26.97 1.66 -26.31 1.88 C-23.1 2.46 -23.1 2.46 -19.45 1.29 C-13.01 -0.21 -6.58 -0.04 0 0 Z " fill="#FCFCFC" transform="translate(854.25,550.75)"/>
<path d="M0 0 C0.88 -0.02 1.75 -0.03 2.66 -0.05 C15.95 -0.06 29.8 5.31 39.36 14.63 C41.48 16.81 43.53 19.05 45.56 21.31 C46.55 22.3 46.55 22.3 47.56 23.31 C48.19 25.94 48.19 25.94 48.56 28.31 C49.22 28.31 49.88 28.31 50.56 28.31 C58.42 43.8 63.29 55.89 58.56 73.31 C58.14 75.12 58.14 75.12 57.71 76.96 C56.03 84.01 54.34 89.68 49.56 95.31 C49.11 96.14 48.65 96.96 48.19 97.81 C45.81 101.48 42.7 104.3 39.56 107.31 C38.96 107.97 38.36 108.63 37.75 109.31 C33.18 113.5 27.17 115.78 21.56 118.31 C20.59 118.75 19.61 119.2 18.61 119.65 C7 124.21 -8.89 124.24 -20.5 119.46 C-22.53 118.49 -24.48 117.42 -26.44 116.31 C-27.16 115.94 -27.88 115.57 -28.62 115.19 C-34.4 112.15 -39.45 108.53 -44.44 104.31 C-45.06 103.8 -45.68 103.29 -46.31 102.77 C-55.01 94.92 -60.8 82.63 -61.6 70.98 C-62.07 60.5 -62.07 50.29 -58.44 40.31 C-58.16 39.54 -57.88 38.77 -57.59 37.98 C-53.63 28.21 -48.32 20.3 -39.77 14.07 C-37.4 12.39 -37.4 12.39 -35.55 10.29 C-32.85 7.77 -30.15 6.62 -26.75 5.19 C-25.59 4.69 -24.43 4.19 -23.24 3.68 C-15.57 0.76 -8.16 -0.03 0 0 Z " fill="#252628" transform="translate(518.4375,613.6875)"/>
<path d="M0 0 C1.06 -0.01 2.11 -0.01 3.2 -0.02 C14.84 0.07 23.99 2.87 33.56 9.44 C34.32 9.94 35.09 10.44 35.87 10.96 C46.73 18.68 57.23 32.98 60.2 46.09 C60.95 50.97 60.89 55.88 60.88 60.81 C60.89 61.88 60.91 62.96 60.92 64.06 C60.93 75.25 58.18 87.34 50.38 95.81 C49.78 96.35 49.18 96.88 48.56 97.44 C48.21 98.16 47.86 98.88 47.5 99.62 C46.56 101.44 46.56 101.44 43.56 102.44 C43.22 103.77 42.89 105.1 42.56 106.44 C37.19 112.06 29.48 115.19 22.56 118.44 C21.39 119.04 20.21 119.63 19 120.25 C14.21 121.9 9.6 122.21 4.56 122.44 C3.71 122.48 2.86 122.52 1.98 122.56 C-12.49 122.93 -26.48 117.42 -38.44 109.44 C-40.7 107.27 -42.54 104.92 -44.44 102.44 C-45.3 101.57 -46.17 100.71 -47.06 99.81 C-52.06 94.81 -54.46 90.38 -56.62 83.75 C-58.3 78.5 -58.3 78.5 -60.44 73.44 C-61.35 62.37 -61.17 50.96 -57.44 40.44 C-57.14 39.54 -56.83 38.64 -56.52 37.71 C-54.57 32.34 -52.24 28.66 -48.44 24.44 C-48.11 23.45 -47.78 22.46 -47.44 21.44 C-46.23 20.97 -46.23 20.97 -45 20.5 C-41.89 19.21 -41.75 18.41 -40.44 15.44 C-37.14 11.38 -33.07 9.6 -28.44 7.44 C-27.49 6.94 -26.54 6.45 -25.56 5.94 C-24.53 5.44 -23.5 4.95 -22.44 4.44 C-21.76 4.11 -21.08 3.77 -20.38 3.43 C-13.48 0.34 -7.5 -0.14 0 0 Z " fill="#252628" transform="translate(793.4375,613.5625)"/>
<path d="M0 0 C1.32 0.66 2.64 1.32 4 2 C4 2.99 4 3.98 4 5 C3.34 5 2.68 5 2 5 C1.77 5.72 1.55 6.44 1.31 7.19 C-0.26 10.56 -2.21 12.56 -5 15 C-5.66 15 -6.32 15 -7 15 C-7.4 16.11 -7.4 16.11 -7.81 17.25 C-8.94 19.87 -10.21 21.8 -12 24 C-12.66 23.67 -13.32 23.34 -14 23 C-13.52 22.26 -13.04 21.53 -12.54 20.77 C-11.91 19.79 -11.28 18.82 -10.62 17.81 C-10 16.85 -9.37 15.89 -8.73 14.89 C-7.17 12.29 -6.11 9.81 -5 7 C-3.45 4.57 -1.73 2.32 0 0 Z " fill="#3F4140" transform="translate(972,748)"/>
<path d="M0 0 C3.23 4.84 3.14 9.27 3.12 15 C3.13 16.2 3.13 17.39 3.13 18.62 C3.02 21.55 2.68 24.16 2 27 C1.01 26.67 0.02 26.34 -1 26 C-1.03 22.04 -1.05 18.08 -1.06 14.12 C-1.07 13 -1.08 11.87 -1.09 10.71 C-1.09 9.63 -1.09 8.55 -1.1 7.45 C-1.1 6.45 -1.11 5.46 -1.11 4.43 C-1 2 -1 2 0 0 Z " fill="#464848" transform="translate(599,682)"/>
<path d="M0 0 C0.99 0.33 1.98 0.66 3 1 C2.33 6.26 0.76 11.03 -1 16 C-1.66 16 -2.32 16 -3 16 C-3 16.99 -3 17.98 -3 19 C-3.66 18.67 -4.32 18.34 -5 18 C-4.43 11.58 -2.33 5.98 0 0 Z " fill="#464948" transform="translate(985,714)"/>
<path d="M0 0 C0.66 0 1.32 0 2 0 C2 0.66 2 1.32 2 2 C3.32 2.33 4.64 2.66 6 3 C6.33 5.64 6.66 8.28 7 11 C5.68 11.33 4.36 11.66 3 12 C2.01 8.04 1.02 4.08 0 0 Z " fill="#3D3F3E" transform="translate(980,639)"/>
<path d="M0 0 C6.93 0 13.86 0 21 0 C21 0.66 21 1.32 21 2 C10.61 2.5 10.61 2.5 0 3 C0 2.01 0 1.02 0 0 Z " fill="#343636" transform="translate(508,614)"/>
<path d="M0 0 C2.31 0.66 4.62 1.32 7 2 C4.42 4.58 2.48 4.92 -1.11 5.11 C-1.84 5.11 -2.57 5.1 -3.33 5.1 C-4.13 5.09 -4.93 5.09 -5.75 5.09 C-6.58 5.08 -7.4 5.07 -8.25 5.06 C-9.09 5.06 -9.93 5.05 -10.8 5.05 C-12.86 5.04 -14.93 5.02 -17 5 C-17 4.67 -17 4.34 -17 4 C-16.02 3.96 -15.05 3.93 -14.04 3.89 C-12.13 3.79 -12.13 3.79 -10.19 3.69 C-8.29 3.6 -8.29 3.6 -6.36 3.51 C-3.03 3.29 -3.03 3.29 -1.05 1.46 C-0.7 0.98 -0.36 0.5 0 0 Z " fill="#565959" transform="translate(527,731)"/>
<path d="M0 0 C4.22 2.53 6.78 4.57 9 9 C6.12 9.12 6.12 9.12 3 9 C0.24 6.24 0.42 3.79 0 0 Z " fill="#3E403F" transform="translate(829,625)"/>
<path d="M0 0 C0.33 0.99 0.66 1.98 1 3 C-2.55 5.37 -3.58 5.11 -7.69 4.62 C-9.18 4.46 -9.18 4.46 -10.7 4.29 C-11.46 4.19 -12.22 4.1 -13 4 C-13 3.34 -13 2.68 -13 2 C-11.21 1.66 -9.42 1.33 -7.62 1 C-6.63 0.81 -5.63 0.63 -4.6 0.44 C-2 0 -2 0 0 0 Z " fill="#383A3A" transform="translate(491,827)"/>
<path d="M0 0 C1.34 0.95 2.67 1.91 4 2.88 C5.11 3.68 5.11 3.68 6.25 4.49 C6.83 4.99 7.4 5.49 8 6 C8 6.66 8 7.32 8 8 C9.32 8.33 10.64 8.66 12 9 C12 9.66 12 10.32 12 11 C6.01 9.69 2.97 6.39 -1 2 C-0.67 1.34 -0.34 0.68 0 0 Z " fill="#525454" transform="translate(750,715)"/>
<path d="M0 0 C0.33 0.99 0.66 1.98 1 3 C0.34 3.66 -0.32 4.32 -1 5 C-1.31 6.18 -1.62 7.35 -1.94 8.56 C-2.29 9.7 -2.64 10.83 -3 12 C-3.99 12.33 -4.98 12.66 -6 13 C-6.47 9.82 -6.51 7.75 -4.66 5.04 C-3.16 3.31 -1.62 1.63 0 0 Z " fill="#3D3F3E" transform="translate(744,641)"/>
<path d="M0 0 C4.25 0.47 6.3 2.85 9 6 C9 6.99 9 7.98 9 9 C5.18 7.44 2.74 5.04 0 2 C0 1.34 0 0.68 0 0 Z " fill="#3C3E3E" transform="translate(951,591)"/>
<path d="M0 0 C3.68 0.35 6.06 1.49 9.25 3.31 C9.25 3.64 9.25 3.97 9.25 4.31 C4.06 4.52 0.12 3.9 -4.75 2.31 C-2.75 0.31 -2.75 0.31 0 0 Z " fill="#3D3F3E" transform="translate(487.75,561.6875)"/>
<path d="M0 0 C3.79 1.49 5.68 3.69 8 7 C8 7.66 8 8.32 8 9 C5.69 8.81 5.69 8.81 3 8 C0.79 5.1 0 3.67 0 0 Z " fill="#3D3F3E" transform="translate(968,613)"/>
<path d="M0 0 C4.29 0.33 8.58 0.66 13 1 C13 1.66 13 2.32 13 3 C8.71 3 4.42 3 0 3 C0 2.01 0 1.02 0 0 Z " fill="#383939" transform="translate(832,816)"/>
<path d="M0 0 C2.06 0.44 2.06 0.44 4 1 C2.73 1.65 1.46 2.29 0.19 2.94 C-0.52 3.3 -1.23 3.66 -1.96 4.03 C-4 5 -4 5 -7 6 C-7.66 5.01 -8.32 4.02 -9 3 C-7.07 1.07 -3.61 1.37 -1 1 C-0.67 0.67 -0.34 0.34 0 0 Z " fill="#606262" transform="translate(405,575)"/>
<path d="M0 0 C-4.97 2.43 -8.35 3.35 -14 3 C-13.67 2.34 -13.34 1.68 -13 1 C-10.82 0.33 -10.82 0.33 -8.12 -0.19 C-7.24 -0.37 -6.36 -0.55 -5.45 -0.73 C-3 -1 -3 -1 0 0 Z " fill="#3D403F" transform="translate(816,732)"/>
<path d="M0 0 C2.13 0.31 4.25 0.62 6.38 0.94 C8.15 1.2 8.15 1.2 9.96 1.46 C13 2 13 2 15 3 C14.67 3.66 14.34 4.32 14 5 C12.42 4.72 10.83 4.42 9.25 4.12 C7.93 3.88 7.93 3.88 6.58 3.63 C4.13 3.03 2.19 2.22 0 1 C0 0.67 0 0.34 0 0 Z " fill="#3C3E3D" transform="translate(780,730)"/>
<path d="M0 0 C-1.46 0.84 -2.91 1.67 -4.38 2.5 C-5.59 3.2 -5.59 3.2 -6.84 3.91 C-9 5 -9 5 -11 5 C-9.97 2.18 -9.3 1.17 -6.62 -0.31 C-3.83 -1.04 -2.69 -0.8 0 0 Z " fill="#3C3E3D" transform="translate(799,563)"/>
<path d="" fill="#252628" transform="translate(0,0)"/>
<path d="" fill="#252628" transform="translate(0,0)"/>
<path d="" fill="#000100" transform="translate(0,0)"/>
<path d="" fill="#000100" transform="translate(0,0)"/>
<path d="" fill="#000100" transform="translate(0,0)"/>
<path d="" fill="#252628" transform="translate(0,0)"/>
<path d="" fill="#000100" transform="translate(0,0)"/>
</svg>
